<svg width="698" height="89" viewBox="0 0 698 89" fill="none" xmlns="http://www.w3.org/2000/svg">
<path d="M30.636 50.949H26.862C26.862 56.129 26.862 61.087 26.862 65.823C26.936 70.485 27.01 75.11 27.084 79.698H30.636C35.816 79.698 39.812 78.514 42.624 76.146C45.51 73.778 46.953 70.226 46.953 65.49C46.953 60.458 45.584 56.795 42.846 54.501C40.182 52.133 36.112 50.949 30.636 50.949ZM30.969 19.647H27.084C27.01 23.791 26.936 28.009 26.862 32.301C26.862 36.519 26.862 40.774 26.862 45.066H29.97C34.706 45.066 38.184 43.956 40.404 41.736C42.624 39.442 43.734 36.112 43.734 31.746C43.734 23.68 39.479 19.647 30.969 19.647ZM0 19.203V13.209H35.853C42.143 13.209 47.175 13.986 50.949 15.54C54.723 17.02 57.461 19.055 59.163 21.645C60.865 24.235 61.716 27.158 61.716 30.414C61.716 32.93 61.161 35.298 60.051 37.518C58.941 39.664 57.017 41.588 54.279 43.29C51.541 44.918 47.73 46.176 42.846 47.064C51.134 48.026 57.054 50.135 60.606 53.391C64.232 56.573 66.045 60.68 66.045 65.712C66.045 68.006 65.527 70.374 64.491 72.816C63.455 75.184 61.679 77.367 59.163 79.365C56.647 81.363 53.132 82.991 48.618 84.249C44.178 85.507 38.517 86.136 31.635 86.136H0V80.142L8.325 79.254C8.473 74.666 8.547 70.041 8.547 65.379C8.547 60.717 8.547 56.018 8.547 51.282V48.063C8.547 43.475 8.547 38.85 8.547 34.188C8.547 29.452 8.473 24.753 8.325 20.091L0 19.203Z" fill="#115A95"/>
<path d="M107.275 88.245C102.687 88.245 98.2836 87.468 94.0656 85.914C89.8476 84.286 86.0736 81.881 82.7436 78.699C79.4876 75.443 76.8976 71.41 74.9736 66.6C73.0496 61.79 72.0876 56.129 72.0876 49.617C72.0876 43.253 73.0496 37.666 74.9736 32.856C76.8976 28.046 79.5246 24.05 82.8546 20.868C86.1846 17.612 89.9586 15.17 94.1766 13.542C98.3946 11.914 102.761 11.1 107.275 11.1C111.863 11.1 116.229 11.914 120.373 13.542C124.591 15.096 128.365 17.464 131.695 20.646C135.025 23.828 137.652 27.861 139.576 32.745C141.5 37.555 142.462 43.179 142.462 49.617C142.462 56.055 141.5 61.679 139.576 66.489C137.652 71.299 135.025 75.332 131.695 78.588C128.439 81.77 124.702 84.175 120.484 85.803C116.266 87.431 111.863 88.245 107.275 88.245ZM107.275 81.807C111.049 81.807 114.046 80.401 116.266 77.589C118.56 74.777 120.225 70.966 121.261 66.156C122.297 61.272 122.815 55.759 122.815 49.617C122.815 43.475 122.297 37.999 121.261 33.189C120.225 28.379 118.56 24.568 116.266 21.756C114.046 18.944 111.049 17.538 107.275 17.538C103.575 17.538 100.578 18.944 98.2836 21.756C95.9896 24.568 94.3246 28.379 93.2886 33.189C92.2526 37.999 91.7346 43.475 91.7346 49.617C91.7346 55.759 92.2526 61.272 93.2886 66.156C94.3246 70.966 95.9896 74.777 98.2836 77.589C100.578 80.401 103.575 81.807 107.275 81.807Z" fill="#115A95"/>
<path d="M148.379 86.136V80.919L154.484 79.587C154.558 76.775 154.595 73.963 154.595 71.151C154.669 68.339 154.706 65.564 154.706 62.826V16.317L147.824 15.207V10.545L171.134 5.55L172.91 6.66L172.466 22.2V62.826C172.466 65.638 172.466 68.45 172.466 71.262C172.54 74.074 172.614 76.886 172.688 79.698L178.793 80.919V86.136H148.379Z" fill="#115A95"/>
<path d="M212.009 36.519C209.937 36.519 208.013 37.814 206.237 40.404C204.535 42.92 203.573 47.582 203.351 54.39H212.786C215.45 54.39 217.226 53.872 218.114 52.836C219.076 51.726 219.557 49.913 219.557 47.397C219.557 43.697 218.817 40.959 217.337 39.183C215.857 37.407 214.081 36.519 212.009 36.519ZM212.231 87.801C206.829 87.801 202.056 86.691 197.912 84.471C193.768 82.177 190.512 78.921 188.144 74.703C185.776 70.411 184.592 65.305 184.592 59.385C184.592 53.169 185.961 47.952 188.699 43.734C191.511 39.442 195.1 36.223 199.466 34.077C203.832 31.857 208.383 30.747 213.119 30.747C218.003 30.747 222.147 31.783 225.551 33.855C229.029 35.927 231.656 38.739 233.432 42.291C235.208 45.769 236.096 49.765 236.096 54.279C236.096 56.425 235.874 58.386 235.43 60.162H203.351C203.721 66.008 205.312 70.337 208.124 73.149C211.01 75.887 214.377 77.256 218.225 77.256C221.259 77.256 223.849 76.701 225.995 75.591C228.141 74.407 230.028 72.964 231.656 71.262L235.541 74.814C233.247 79.18 230.139 82.436 226.217 84.582C222.295 86.728 217.633 87.801 212.231 87.801Z" fill="#115A95"/>
<path d="M263.456 87.801C258.498 87.801 254.613 86.617 251.801 84.249C248.989 81.807 247.583 77.848 247.583 72.372C247.583 70.448 247.583 68.672 247.583 67.044C247.657 65.342 247.694 63.418 247.694 61.272V40.071H240.479V33.522L248.693 32.412L254.243 16.872H265.565L265.343 32.523H276.998V40.071H265.343V71.151C265.343 73.741 265.861 75.665 266.897 76.923C268.007 78.107 269.376 78.699 271.004 78.699C272.928 78.699 274.926 77.885 276.998 76.257L279.773 78.921C278.293 81.733 276.221 83.916 273.557 85.47C270.967 87.024 267.6 87.801 263.456 87.801Z" fill="#115A95"/>
<path d="M282.37 86.136V80.919L288.364 79.587C288.438 76.923 288.475 74.037 288.475 70.929C288.475 67.821 288.475 65.12 288.475 62.826V57.498C288.475 54.464 288.438 51.948 288.364 49.95C288.364 47.878 288.29 45.732 288.142 43.512L281.371 42.513V38.184L304.57 30.747L306.457 31.968L306.124 48.063V62.826C306.124 65.12 306.124 67.858 306.124 71.04C306.124 74.148 306.161 77.071 306.235 79.809L311.785 80.919V86.136H282.37ZM291.472 21.312C292.434 19.61 293.507 17.76 294.691 15.762C295.949 13.764 297.762 10.841 300.13 6.993C301.61 4.477 302.979 2.701 304.237 1.665C305.495 0.554999 307.049 0 308.899 0C310.379 0 311.748 0.554999 313.006 1.665C314.264 2.701 314.893 4.181 314.893 6.105C314.893 7.733 314.264 9.287 313.006 10.767C311.822 12.247 310.12 13.801 307.9 15.429C304.718 17.871 302.239 19.758 300.463 21.09C298.761 22.422 297.17 23.643 295.69 24.753L291.472 21.312Z" fill="#115A95"/>
<path d="M317.269 86.136V80.919L323.263 79.587C323.337 76.923 323.374 74.037 323.374 70.929C323.374 67.821 323.374 65.12 323.374 62.826V56.388C323.374 53.354 323.337 51.023 323.263 49.395C323.263 47.693 323.189 45.732 323.041 43.512L316.27 42.513V38.184L338.137 30.747L340.135 31.968L340.801 39.96C343.687 36.556 346.536 34.188 349.348 32.856C352.234 31.45 355.305 30.747 358.561 30.747C363.371 30.747 367.219 32.338 370.105 35.52C373.065 38.702 374.545 43.475 374.545 49.839V62.826C374.545 65.268 374.545 68.043 374.545 71.151C374.545 74.185 374.582 77.071 374.656 79.809L380.206 80.919V86.136H350.902V80.919L356.674 79.698C356.748 76.96 356.785 74.074 356.785 71.04C356.785 67.932 356.785 65.194 356.785 62.826V51.171C356.785 47.619 356.304 45.14 355.342 43.734C354.38 42.254 352.826 41.514 350.68 41.514C347.794 41.514 344.612 42.846 341.134 45.51V62.826C341.134 65.12 341.134 67.858 341.134 71.04C341.134 74.148 341.171 77.071 341.245 79.809L346.462 80.919V86.136H317.269Z" fill="#115A95"/>
<path d="M393.886 68.046C393.886 73.7453 395.131 78.0337 397.621 80.911C400.111 83.733 403.21 85.144 406.917 85.144C409.186 85.144 411.233 84.646 413.059 83.65C414.94 82.654 416.822 81.0493 418.703 78.836V55.596C416.822 53.6593 414.968 52.2483 413.142 51.363C411.316 50.4777 409.435 50.035 407.498 50.035C405.008 50.035 402.739 50.6713 400.692 51.944C398.645 53.2167 396.985 55.181 395.712 57.837C394.495 60.493 393.886 63.896 393.886 68.046ZM418.869 87.8L418.703 81.658C416.988 83.9267 415.079 85.5867 412.976 86.638C410.873 87.6893 408.549 88.215 406.004 88.215C402.739 88.215 399.862 87.3573 397.372 85.642C394.882 83.9267 392.945 81.5473 391.562 78.504C390.179 75.4607 389.487 72.0023 389.487 68.129C389.487 63.7577 390.262 59.995 391.811 56.841C393.36 53.687 395.463 51.2523 398.119 49.537C400.775 47.7663 403.763 46.881 407.083 46.881C409.02 46.881 410.984 47.3513 412.976 48.292C415.023 49.2327 416.96 50.8373 418.786 53.106V29.949L411.399 29.617V27.459L421.857 25.301L423.019 25.965L422.77 37.585V84.314L430.821 84.978V87.136L418.869 87.8Z" fill="#718096"/>
<path d="M436.323 87.136V84.978L443.295 84.148C443.35 82.0453 443.378 79.6383 443.378 76.927C443.433 74.1603 443.461 71.7533 443.461 69.706V65.722C443.461 63.2873 443.461 60.991 443.461 58.833C443.461 56.675 443.406 54.4893 443.295 52.276L435.908 51.944V49.786L446.698 47.13L447.694 47.794L447.528 58.086V69.706C447.528 71.7533 447.528 74.1603 447.528 76.927C447.583 79.6383 447.639 82.0453 447.694 84.148L454.085 84.978V87.136H436.323ZM445.121 35.095C444.07 35.095 443.157 34.763 442.382 34.099C441.663 33.435 441.303 32.5497 441.303 31.443C441.303 30.281 441.663 29.368 442.382 28.704C443.157 28.04 444.07 27.708 445.121 27.708C446.172 27.708 447.058 28.04 447.777 28.704C448.552 29.368 448.939 30.281 448.939 31.443C448.939 32.5497 448.552 33.435 447.777 34.099C447.058 34.763 446.172 35.095 445.121 35.095Z" fill="#718096"/>
<path d="M492.662 88.132C490.781 88.132 489.314 87.468 488.263 86.14C487.212 84.812 486.548 82.9583 486.271 80.579C483.836 83.1243 481.623 85.0333 479.631 86.306C477.639 87.5787 475.315 88.215 472.659 88.215C469.671 88.215 467.153 87.3573 465.106 85.642C463.114 83.9267 462.118 81.4643 462.118 78.255C462.118 75.4883 463.086 73.1367 465.023 71.2C466.959 69.208 470.28 67.4097 474.983 65.805C476.754 65.1963 478.607 64.643 480.544 64.145C482.48 63.5917 484.362 63.1213 486.188 62.734V60.41C486.188 57.4773 485.856 55.2363 485.192 53.687C484.528 52.0823 483.504 50.9757 482.121 50.367C480.793 49.7583 479.105 49.454 477.058 49.454C475.896 49.454 474.734 49.5647 473.572 49.786C472.465 50.0073 471.331 50.4223 470.169 51.031L468.592 56.343C468.094 58.0583 467.125 58.916 465.687 58.916C464.248 58.916 463.39 58.1413 463.114 56.592C463.944 53.4933 465.659 51.114 468.26 49.454C470.916 47.7387 474.125 46.881 477.888 46.881C481.983 46.881 485.053 47.9047 487.101 49.952C489.203 51.944 490.255 55.2363 490.255 59.829V78.172C490.255 80.8833 490.559 82.737 491.168 83.733C491.832 84.729 492.773 85.227 493.99 85.227C495.041 85.227 496.175 84.7013 497.393 83.65L498.555 85.061C497.006 87.1083 495.041 88.132 492.662 88.132ZM466.434 77.425C466.434 79.8043 467.126 81.6303 468.509 82.903C469.948 84.1203 471.829 84.729 474.153 84.729C475.979 84.729 477.75 84.2587 479.465 83.318C481.236 82.322 483.477 80.579 486.188 78.089V64.892C484.417 65.2793 482.591 65.7773 480.71 66.386C478.829 66.9393 477.168 67.4927 475.73 68.046C472.188 69.374 469.754 70.8403 468.426 72.445C467.098 73.9943 466.434 75.6543 466.434 77.425Z" fill="#718096"/>
<path d="M503.274 87.136V84.978L510.163 84.148C510.219 82.0453 510.246 79.6383 510.246 76.927C510.301 74.1603 510.329 71.7533 510.329 69.706V65.722C510.329 60.576 510.246 56.094 510.08 52.276L502.776 51.944V49.786L512.902 47.13L513.898 47.794L514.396 58.169C515.669 54.849 517.495 52.1377 519.874 50.035C522.309 47.9323 524.854 46.881 527.51 46.881C528.838 46.881 530.028 47.13 531.079 47.628C532.13 48.126 532.85 48.707 533.237 49.371C533.237 51.9717 532.075 53.272 529.751 53.272C528.921 53.272 528.147 53.0783 527.427 52.691C526.763 52.3037 526.044 51.778 525.269 51.114L524.356 50.284C522.198 51.1693 520.289 52.6357 518.629 54.683C517.024 56.675 515.614 59.2203 514.396 62.319V69.706C514.396 71.7533 514.396 74.1603 514.396 76.927C514.452 79.6383 514.507 82.0453 514.562 84.148L522.032 84.978V87.136H503.274Z" fill="#718096"/>
<path d="M537.398 87.136V84.978L544.37 84.148C544.426 82.0453 544.453 79.6383 544.453 76.927C544.509 74.1603 544.536 71.7533 544.536 69.706V65.722C544.536 63.2873 544.536 60.991 544.536 58.833C544.536 56.675 544.481 54.4893 544.37 52.276L536.983 51.944V49.786L547.773 47.13L548.769 47.794L548.603 58.086V69.706C548.603 71.7533 548.603 74.1603 548.603 76.927C548.659 79.6383 548.714 82.0453 548.769 84.148L555.16 84.978V87.136H537.398ZM546.196 35.095C545.145 35.095 544.232 34.763 543.457 34.099C542.738 33.435 542.378 32.5497 542.378 31.443C542.378 30.281 542.738 29.368 543.457 28.704C544.232 28.04 545.145 27.708 546.196 27.708C547.248 27.708 548.133 28.04 548.852 28.704C549.627 29.368 550.014 30.281 550.014 31.443C550.014 32.5497 549.627 33.435 548.852 34.099C548.133 34.763 547.248 35.095 546.196 35.095Z" fill="#718096"/>
<path d="M581.287 88.215C578.244 88.215 575.311 87.4957 572.489 86.057C569.722 84.563 567.426 82.2943 565.6 79.251C563.829 76.2077 562.944 72.362 562.944 67.714C562.944 63.0107 563.829 59.1373 565.6 56.094C567.426 52.9953 569.722 50.699 572.489 49.205C575.311 47.6557 578.244 46.881 581.287 46.881C584.33 46.881 587.235 47.6557 590.002 49.205C592.824 50.699 595.148 52.9953 596.974 56.094C598.8 59.1373 599.713 63.0107 599.713 67.714C599.713 72.362 598.8 76.2077 596.974 79.251C595.148 82.2943 592.824 84.563 590.002 86.057C587.235 87.4957 584.33 88.215 581.287 88.215ZM581.287 85.725C585.492 85.725 588.84 84.148 591.33 80.994C593.82 77.84 595.065 73.4133 595.065 67.714C595.065 61.9593 593.82 57.4773 591.33 54.268C588.84 51.0587 585.492 49.454 581.287 49.454C577.082 49.454 573.734 51.0587 571.244 54.268C568.754 57.4773 567.509 61.9593 567.509 67.714C567.509 73.4133 568.754 77.84 571.244 80.994C573.734 84.148 577.082 85.725 581.287 85.725Z" fill="#718096"/>
<path d="M614.787 88.215C613.625 88.215 612.657 87.8277 611.882 87.053C611.107 86.223 610.72 85.2823 610.72 84.231C610.72 83.1243 611.107 82.1837 611.882 81.409C612.657 80.579 613.625 80.164 614.787 80.164C615.949 80.164 616.917 80.579 617.692 81.409C618.467 82.1837 618.854 83.1243 618.854 84.231C618.854 85.2823 618.467 86.223 617.692 87.053C616.917 87.8277 615.949 88.215 614.787 88.215Z" fill="#718096"/>
<path d="M646.869 49.454C644.545 49.454 642.387 50.0903 640.395 51.363C638.458 52.5803 636.854 54.3233 635.581 56.592C634.364 58.8607 633.617 61.5443 633.34 64.643H655.003C656.165 64.643 656.94 64.3387 657.327 63.73C657.77 63.1213 657.991 62.2083 657.991 60.991C657.991 58.999 657.548 57.1177 656.663 55.347C655.778 53.5763 654.505 52.1653 652.845 51.114C651.185 50.0073 649.193 49.454 646.869 49.454ZM647.201 88.215C643.881 88.215 640.838 87.468 638.071 85.974C635.304 84.4247 633.063 82.1283 631.348 79.085C629.688 76.0417 628.858 72.2237 628.858 67.631C628.858 63.4257 629.688 59.7737 631.348 56.675C633.063 53.5763 635.304 51.1693 638.071 49.454C640.838 47.7387 643.826 46.881 647.035 46.881C650.078 46.881 652.734 47.5727 655.003 48.956C657.272 50.284 659.015 52.11 660.232 54.434C661.505 56.758 662.141 59.414 662.141 62.402C662.141 63.398 662.086 64.2833 661.975 65.058C661.864 65.8327 661.726 66.5243 661.56 67.133L633.257 67.05C633.312 71.1447 634.004 74.52 635.332 77.176C636.715 79.7767 638.514 81.7133 640.727 82.986C642.996 84.2033 645.458 84.812 648.114 84.812C650.77 84.812 653.122 84.314 655.169 83.318C657.216 82.322 659.015 80.9663 660.564 79.251L661.892 80.413C660.343 82.7923 658.268 84.7013 655.667 86.14C653.122 87.5233 650.3 88.215 647.201 88.215Z" fill="#718096"/>
<path d="M682.729 88.215C680.405 88.215 678.302 87.966 676.421 87.468C674.595 86.97 672.686 86.2783 670.694 85.393L670.362 76.761H673.267L674.595 84.065C675.702 84.6183 676.919 85.0333 678.247 85.31C679.575 85.5867 681.124 85.725 682.895 85.725C686.492 85.725 689.175 85.0057 690.946 83.567C692.717 82.073 693.602 80.2193 693.602 78.006C693.602 76.0693 692.966 74.4923 691.693 73.275C690.42 72.0577 688.235 70.8957 685.136 69.789L681.235 68.378C678.247 67.2713 675.84 65.888 674.014 64.228C672.243 62.568 671.358 60.3547 671.358 57.588C671.358 54.6 672.492 52.0823 674.761 50.035C677.085 47.9323 680.405 46.881 684.721 46.881C686.99 46.881 688.954 47.1853 690.614 47.794C692.274 48.3473 694.045 49.1773 695.926 50.284L695.677 58.086H692.938L692.025 51.446C690.752 50.6713 689.48 50.1457 688.207 49.869C686.99 49.5923 685.745 49.454 684.472 49.454C681.429 49.454 679.132 50.1457 677.583 51.529C676.089 52.857 675.342 54.5447 675.342 56.592C675.342 58.6393 675.978 60.2163 677.251 61.323C678.579 62.4297 680.654 63.5087 683.476 64.56L686.962 65.888C690.891 67.3267 693.63 68.9313 695.179 70.702C696.784 72.4173 697.586 74.5477 697.586 77.093C697.586 79.0297 697.033 80.8557 695.926 82.571C694.875 84.2863 693.242 85.6697 691.029 86.721C688.871 87.717 686.104 88.215 682.729 88.215Z" fill="#718096"/>
<path d="M126.337 50.136C126.337 70.0183 117.383 86.136 106.337 86.136C95.2913 86.136 86.337 70.0183 86.337 50.136C86.337 30.2537 95.2913 14.136 106.337 14.136C117.383 14.136 126.337 30.2537 126.337 50.136Z" fill="#115A95"/>
<path d="M82.337 54.0925C82.337 54.0925 90.8624 50.2901 95.2026 45.5073C99.5428 40.7244 102.993 31.3296 102.993 31.3296C102.993 31.3296 105.607 40.9304 109.76 45.5073C113.914 50.0842 122.626 54.0925 122.626 54.0925C122.626 54.0925 113.774 57.1261 109.76 61.5497C105.746 65.9733 102.993 75.7274 102.993 75.7274C102.993 75.7274 99.3559 66.1266 95.2026 61.5497C91.0493 56.9728 82.337 54.0925 82.337 54.0925Z" fill="white"/>
<path d="M109.929 34.2564C109.929 34.2564 114.281 32.891 116.497 30.4491C118.713 28.0073 119.952 23.2107 119.952 23.2107C119.952 23.2107 121.809 28.1124 123.93 30.4491C126.05 32.7859 130.498 34.8323 130.498 34.8323C130.498 34.8323 125.979 36.3811 123.93 38.6395C121.88 40.898 120.475 45.8779 120.475 45.8779C120.475 45.8779 118.618 40.9763 116.497 38.6395C114.377 36.3028 109.929 34.2564 109.929 34.2564Z" fill="white"/>
</svg>
